<svg width="50" height="50" viewBox="0 0 50 50" fill="none" xmlns="http://www.w3.org/2000/svg">
<path d="M-1.52588e-05 25C-1.52588e-05 31.6304 2.63391 37.9893 7.32232 42.6777C12.0107 47.3661 18.3696 50 25 50C28.283 50 31.5339 49.3534 34.5671 48.097C37.6002 46.8407 40.3562 44.9992 42.6777 42.6777C47.3661 37.9893 50 31.6304 50 25C50 18.3696 47.3661 12.0108 42.6777 7.32236C37.9893 2.63395 31.6304 3.05176e-05 25 3.05176e-05C21.7169 3.05176e-05 18.466 0.646675 15.4329 1.90304C12.3998 3.15941 9.64378 5.0009 7.32232 7.32236C5.00085 9.64383 3.15936 12.3998 1.90299 15.4329C0.646627 18.4661 -1.52588e-05 21.717 -1.52588e-05 25V25ZM4.99999 25C4.99999 19.6957 7.10712 14.6086 10.8579 10.8579C14.6086 7.10717 19.6957 5.00003 25 5.00003C30.3043 5.00003 35.3914 7.10717 39.1421 10.8579C42.8929 14.6086 45 19.6957 45 25C45 30.3044 42.8929 35.3914 39.1421 39.1422C35.3914 42.8929 30.3043 45 25 45C19.6957 45 14.6086 42.8929 10.8579 39.1422C7.10712 35.3914 4.99999 30.3044 4.99999 25ZM16.5 36.5L28 25L16.5 13.5L20 10L35 25L20 40L16.5 36.5Z" fill="#99E7B7"/>
</svg>
