<svg width="16" height="16" viewBox="0 0 16 16" fill="none" xmlns="http://www.w3.org/2000/svg">
<path d="M0.574922 15.4251C0.856213 15.7063 1.23768 15.8643 1.63542 15.8643C2.03317 15.8643 2.41463 15.7063 2.69592 15.4251L7.99992 10.1211L13.3039 15.4251C13.5868 15.6983 13.9657 15.8495 14.359 15.8461C14.7523 15.8427 15.1285 15.6849 15.4066 15.4068C15.6848 15.1287 15.8425 14.7525 15.8459 14.3592C15.8493 13.9659 15.6982 13.587 15.4249 13.3041L10.1209 8.00008L15.4249 2.69608C15.6982 2.41317 15.8493 2.03427 15.8459 1.64098C15.8425 1.24768 15.6848 0.871463 15.4066 0.59335C15.1285 0.315238 14.7523 0.157485 14.359 0.154068C13.9657 0.15065 13.5868 0.301842 13.3039 0.575079L7.99992 5.87908L2.69592 0.575079C2.41302 0.301842 2.03412 0.15065 1.64082 0.154068C1.24752 0.157485 0.871306 0.315238 0.593194 0.59335C0.315082 0.871463 0.157328 1.24768 0.153911 1.64098C0.150493 2.03427 0.301685 2.41317 0.574922 2.69608L5.87892 8.00008L0.574922 13.3041C0.293715 13.5854 0.135742 13.9668 0.135742 14.3646C0.135742 14.7623 0.293715 15.1438 0.574922 15.4251Z" fill="#99E7B7"/>
</svg>
