<svg width="87" height="77" viewBox="0 0 87 77" fill="none" xmlns="http://www.w3.org/2000/svg">
<path fill-rule="evenodd" clip-rule="evenodd" d="M48.0786 8.04468C55.3753 9.30702 63.4792 6.02029 69.8097 9.37219C76.2987 12.808 78.583 19.6352 81.4184 25.6976C84.47 32.2223 87.8221 38.7641 86.8188 45.7393C85.6691 53.7318 82.3016 61.6858 75.4481 67.2043C68.073 73.1428 58.1951 76.543 48.0786 76.933C37.6594 77.3346 25.771 76.0679 18.8571 69.3856C12.1506 62.9038 17.5893 52.5475 14.3592 44.3433C11.0677 35.9827 -0.855504 30.4013 0.048797 21.6131C0.977144 12.5911 8.81448 3.39776 18.8646 0.558599C28.7596 -2.23673 37.865 6.27771 48.0786 8.04468Z" fill="#FF9D71"/>
<path d="M64.125 21.3125H22.875C21.9633 21.3125 21.089 21.6747 20.4443 22.3193C19.7997 22.964 19.4375 23.8383 19.4375 24.75V52.25C19.4375 53.1617 19.7997 54.036 20.4443 54.6807C21.089 55.3253 21.9633 55.6875 22.875 55.6875H64.125C65.0367 55.6875 65.911 55.3253 66.5557 54.6807C67.2003 54.036 67.5625 53.1617 67.5625 52.25V24.75C67.5625 23.8383 67.2003 22.964 66.5557 22.3193C65.911 21.6747 65.0367 21.3125 64.125 21.3125ZM60.3438 24.75L43.5 36.4031L26.6562 24.75H60.3438ZM22.875 52.25V26.3141L42.5203 39.9094C42.808 40.109 43.1498 40.2159 43.5 40.2159C43.8502 40.2159 44.192 40.109 44.4797 39.9094L64.125 26.3141V52.25H22.875Z" fill="white"/>
</svg>
