<svg width="87" height="77" viewBox="0 0 87 77" fill="none" xmlns="http://www.w3.org/2000/svg">
<path fill-rule="evenodd" clip-rule="evenodd" d="M48.0786 8.04468C55.3753 9.30702 63.4792 6.02029 69.8097 9.37219C76.2987 12.808 78.583 19.6352 81.4184 25.6976C84.47 32.2223 87.8221 38.7641 86.8188 45.7393C85.6691 53.7318 82.3016 61.6858 75.4481 67.2043C68.073 73.1428 58.1951 76.543 48.0786 76.933C37.6594 77.3346 25.771 76.0679 18.8571 69.3856C12.1506 62.9038 17.5893 52.5475 14.3592 44.3433C11.0677 35.9827 -0.855504 30.4013 0.048797 21.6131C0.977144 12.5911 8.81448 3.39776 18.8646 0.558599C28.7596 -2.23673 37.865 6.27771 48.0786 8.04468Z" fill="#FF9D71"/>
<path d="M56.9687 45.3786L58.5753 34.9612H48.5251V28.2008C48.5251 25.3508 49.9289 22.5728 54.4305 22.5728H59V13.7039C59 13.7039 54.853 13 50.8883 13C42.6109 13 37.2009 17.9891 37.2009 27.0214V34.9612H28V45.3786H37.2009V70.5622C39.074 70.8541 40.9671 71.0005 42.863 71C44.7893 71 46.6802 70.8501 48.5251 70.5622V45.3786H56.9687Z" fill="white"/>
</svg>
