<svg width="25" height="17" viewBox="0 0 25 17" fill="none" xmlns="http://www.w3.org/2000/svg">
<path d="M1.66798 9.47315L12.4963 2.31646C12.4975 2.31642 12.4988 2.31641 12.5 2.31641C12.5012 2.31641 12.5025 2.31642 12.5037 2.31646L23.332 9.47315C23.4294 9.53748 23.4785 9.59058 23.5 9.61833V14.7649C23.4404 14.7782 23.3663 14.7881 23.2784 14.7881H17.0398C16.9619 14.7881 16.8954 14.7802 16.8409 14.7691V11.7855C16.8409 10.6031 16.1156 9.7222 15.3356 9.20664C14.5435 8.68314 13.5366 8.40788 12.5 8.40788C11.4634 8.40788 10.4565 8.68314 9.66441 9.20664C8.88435 9.7222 8.15909 10.6031 8.15909 11.7855V14.7691C8.10455 14.7802 8.0381 14.7881 7.96023 14.7881H1.72159C1.63371 14.7881 1.55959 14.7782 1.5 14.7649V9.61832C1.52146 9.59058 1.57064 9.53748 1.66798 9.47315Z" stroke="#FF9D71" stroke-width="3"/>
</svg>
