<svg width="87" height="77" viewBox="0 0 87 77" fill="none" xmlns="http://www.w3.org/2000/svg">
<path fill-rule="evenodd" clip-rule="evenodd" d="M48.0786 8.04468C55.3753 9.30702 63.4792 6.02029 69.8097 9.37219C76.2987 12.808 78.583 19.6352 81.4184 25.6976C84.47 32.2223 87.8221 38.7641 86.8188 45.7393C85.6691 53.7318 82.3016 61.6858 75.4481 67.2043C68.073 73.1428 58.1951 76.543 48.0786 76.933C37.6594 77.3346 25.771 76.0679 18.8571 69.3856C12.1506 62.9038 17.5893 52.5475 14.3592 44.3433C11.0677 35.9827 -0.855504 30.4013 0.048797 21.6131C0.977144 12.5911 8.81448 3.39776 18.8646 0.558599C28.7596 -2.23673 37.865 6.27771 48.0786 8.04468Z" fill="#FF9D71"/>
<path d="M43 19C37.5667 19 36.8883 19.025 34.755 19.12C32.625 19.22 31.175 19.555 29.9 20.05C28.585 20.56 27.4683 21.245 26.3567 22.3567C25.245 23.4683 24.5583 24.5833 24.05 25.9C23.555 27.175 23.2183 28.625 23.12 30.755C23.02 32.8883 23 33.5667 23 39C23 44.4333 23.025 45.1117 23.12 47.245C23.22 49.3733 23.555 50.825 24.05 52.1C24.5522 53.4348 25.3393 54.644 26.3567 55.6433C27.3555 56.6614 28.5648 57.4487 29.9 57.95C31.1767 58.4433 32.6267 58.7817 34.755 58.88C36.8883 58.98 37.5667 59 43 59C48.4333 59 49.1117 58.975 51.245 58.88C53.3733 58.78 54.825 58.4433 56.1 57.95C57.4344 57.4472 58.6435 56.6601 59.6433 55.6433C60.6617 54.6448 61.4491 53.4354 61.95 52.1C62.4433 50.825 62.7817 49.3733 62.88 47.245C62.98 45.1117 63 44.4333 63 39C63 33.5667 62.975 32.8883 62.88 30.755C62.78 28.6267 62.4433 27.1733 61.95 25.9C61.4476 24.5654 60.6605 23.3562 59.6433 22.3567C58.6453 21.3377 57.4357 20.5503 56.1 20.05C54.825 19.555 53.3733 19.2183 51.245 19.12C49.1117 19.02 48.4333 19 43 19ZM43 22.6C48.3383 22.6 48.975 22.6267 51.0833 22.7183C53.0333 22.81 54.0917 23.1333 54.795 23.41C55.7317 23.7717 56.395 24.205 57.0983 24.9033C57.7967 25.6033 58.23 26.2683 58.5917 27.205C58.865 27.9083 59.1917 28.9667 59.28 30.9167C59.375 33.0267 59.3967 33.66 59.3967 39C59.3967 44.34 59.3717 44.975 59.2733 47.0833C59.1717 49.0333 58.8467 50.0917 58.5717 50.795C58.2463 51.6629 57.7349 52.4491 57.0733 53.0983C56.4269 53.7605 55.6412 54.2706 54.7733 54.5917C54.0733 54.865 52.9983 55.1917 51.0483 55.28C48.925 55.375 48.3 55.3967 42.95 55.3967C37.5983 55.3967 36.9733 55.3717 34.8517 55.2733C32.9 55.1717 31.825 54.8467 31.125 54.5717C30.2565 54.2503 29.4711 53.7383 28.8267 53.0733C28.1576 52.4312 27.6445 51.6445 27.3267 50.7733C27.0517 50.0733 26.7283 48.9983 26.6267 47.0483C26.5517 44.9483 26.525 44.3 26.525 38.975C26.525 33.6483 26.5517 32.9983 26.6267 30.8733C26.7283 28.9233 27.0517 27.85 27.3267 27.15C27.6767 26.2 28.125 25.55 28.8267 24.8483C29.525 24.15 30.1767 23.7 31.125 23.3517C31.825 23.075 32.8767 22.75 34.8267 22.65C36.9517 22.575 37.5767 22.55 42.925 22.55L43 22.6ZM43 28.73C41.6513 28.73 40.3159 28.9956 39.0698 29.5118C37.8238 30.0279 36.6917 30.7844 35.738 31.738C34.7844 32.6917 34.0279 33.8238 33.5118 35.0698C32.9956 36.3159 32.73 37.6513 32.73 39C32.73 40.3487 32.9956 41.6841 33.5118 42.9302C34.0279 44.1762 34.7844 45.3083 35.738 46.262C36.6917 47.2156 37.8238 47.9721 39.0698 48.4882C40.3159 49.0044 41.6513 49.27 43 49.27C45.7238 49.27 48.336 48.188 50.262 46.262C52.188 44.336 53.27 41.7238 53.27 39C53.27 36.2762 52.188 33.664 50.262 31.738C48.336 29.812 45.7238 28.73 43 28.73ZM43 45.6667C39.3167 45.6667 36.3333 42.6833 36.3333 39C36.3333 35.3167 39.3167 32.3333 43 32.3333C46.6833 32.3333 49.6667 35.3167 49.6667 39C49.6667 42.6833 46.6833 45.6667 43 45.6667ZM56.0767 28.325C56.0535 28.946 55.7905 29.5339 55.343 29.9651C54.8954 30.3963 54.2981 30.6372 53.6767 30.6372C53.0552 30.6372 52.4579 30.3963 52.0104 29.9651C51.5628 29.5339 51.2998 28.946 51.2767 28.325C51.2767 27.6885 51.5295 27.078 51.9796 26.6279C52.4297 26.1779 53.0401 25.925 53.6767 25.925C54.3132 25.925 54.9236 26.1779 55.3737 26.6279C55.8238 27.078 56.0767 27.6885 56.0767 28.325Z" fill="white"/>
</svg>
