<svg width="12" height="16" viewBox="0 0 12 16" fill="none" xmlns="http://www.w3.org/2000/svg">
<path d="M6 1.5C7.65 1.5 9 2.85 9 4.5C9 6.075 7.425 8.625 6 10.425C4.575 8.55 3 6.075 3 4.5C3 2.85 4.35 1.5 6 1.5ZM6 0C3.525 0 1.5 2.025 1.5 4.5C1.5 7.875 6 12.75 6 12.75C6 12.75 10.5 7.8 10.5 4.5C10.5 2.025 8.475 0 6 0ZM6 3C5.175 3 4.5 3.675 4.5 4.5C4.5 5.325 5.175 6 6 6C6.825 6 7.5 5.325 7.5 4.5C7.5 3.675 6.825 3 6 3ZM12 12.75C12 14.4 9.3 15.75 6 15.75C2.7 15.75 0 14.4 0 12.75C0 11.775 0.9 10.95 2.325 10.35L2.775 11.025C2.025 11.4 1.5 11.85 1.5 12.375C1.5 13.425 3.525 14.25 6 14.25C8.475 14.25 10.5 13.425 10.5 12.375C10.5 11.85 9.975 11.4 9.15 11.025L9.6 10.35C11.1 10.95 12 11.775 12 12.75Z" fill="#FF9D71"/>
</svg>
