<svg width="362" height="293" viewBox="0 0 362 293" fill="none" xmlns="http://www.w3.org/2000/svg">
<defs>
    <clipPath id="patronize" clipPathUnits="objectBoundingBox">
    
<path fill-rule="evenodd" clip-rule="evenodd" d="M173.631 0.0216159C201.895 -0.671455 226.023 15.4577 252.332 25.9783C289.775 40.9513 346.85 35.8745 359.963 74.5331C372.999 112.968 319.805 141.727 304.306 179.206C290.806 211.849 302.924 256.709 275.561 278.629C248.174 300.569 208.494 282.993 173.631 283.891C137.508 284.821 98.2592 303.858 67.8792 283.976C37.2943 263.959 34.3524 220.917 23.4956 185.632C12.7797 150.806 -10.3686 113.315 5.25978 80.4633C20.8742 47.6411 65.177 45.2823 97.6425 29.7715C122.824 17.7408 145.814 0.703723 173.631 0.0216159Z" fill="#FF9D71"/>
    </clipPath>
</defs>
</svg>
