<svg width="162" height="159" viewBox="0 0 162 159" fill="none" xmlns="http://www.w3.org/2000/svg">
<path d="M31.1912 90.313L31.2681 90.4283L31.3712 90.2732L31.1912 90.313ZM36.3427 89.7969C36.3067 89.4583 36.3613 89.1553 36.233 88.9989C36.1116 88.8509 35.7981 88.8568 35.5693 88.7952C35.5743 89.0303 35.4939 89.3268 35.6071 89.4831C35.7252 89.6462 36.0291 89.6743 36.3427 89.7969ZM34.6407 91.007C34.5294 90.7027 34.4834 90.4035 34.3158 90.2034C34.2465 90.1207 33.9171 90.2509 33.7059 90.2841C33.8122 90.5566 33.8988 90.841 34.0421 91.0915C34.0701 91.1404 34.3172 91.0568 34.6407 91.007ZM38.0736 88.5482C38.2523 88.2786 38.4182 88.1333 38.4265 87.9958C38.4516 87.5869 38.1616 87.4117 37.7846 87.4751C37.6487 87.498 37.3921 87.8827 37.4285 87.9349C37.5893 88.1662 37.8363 88.3367 38.0736 88.5482ZM31.0514 92.8711C30.5415 92.9034 30.2368 92.8633 29.9818 92.9685C29.883 93.0089 29.7881 93.492 29.8817 93.5737C30.0817 93.7481 30.406 93.7926 30.6794 93.8901C30.777 93.6226 30.8747 93.3551 31.0514 92.8711ZM28.9191 94.3447C28.5215 94.3851 28.2261 94.3273 28.0839 94.4466C27.7315 94.7426 27.847 95.092 28.1309 95.2946C28.2808 95.4017 28.5659 95.3416 28.7902 95.3568C28.8282 95.0583 28.8663 94.7598 28.9191 94.3447ZM33.2934 91.6258C32.6846 91.5064 32.3326 91.437 31.9807 91.368C31.894 91.6571 31.6643 92.0246 31.7597 92.2143C31.8609 92.416 32.2866 92.5747 32.5399 92.5175C32.7538 92.4693 32.9236 92.0854 33.2934 91.6258ZM53.9235 110.166C52.8756 110.942 51.824 111.713 50.7846 112.501C50.676 112.583 50.637 112.757 50.4554 113.091C52.1863 112.637 53.3375 111.749 53.9235 110.166ZM27.317 98.7185C32.2546 95.7982 36.6187 92.4743 40.9404 89.0932C41.0834 88.9814 41.2177 88.8559 41.3423 88.7245C41.5682 88.4861 41.4426 87.9369 41.1149 87.9021C40.9068 87.8799 40.5009 87.9944 40.4568 88.1143C40.2375 88.7134 40.1403 89.3039 39.2202 89.1768C38.941 89.1385 38.5301 89.4176 38.2428 89.6345C35.4169 91.7665 32.6031 93.9144 29.7915 96.0651C29.5737 96.2318 29.2843 96.434 29.2221 96.6518C28.9788 97.5025 28.3631 97.7369 27.5944 97.8933C27.4753 97.9173 27.4082 98.431 27.317 98.7185ZM56.1525 105.283C52.2733 108.143 48.4042 111.001 44.4354 113.965C44.8214 114.194 45.0083 114.398 45.2353 114.422C45.9777 114.501 46.6369 114.209 47.2692 113.735C49.9682 111.716 52.6838 109.718 55.3899 107.708C55.6141 107.542 55.8584 107.371 56.017 107.154C56.4017 106.628 56.7419 106.075 56.1525 105.283ZM28.2474 100.852C28.7931 100.722 29.0013 100.728 29.1376 100.632C34.1655 97.075 39.1873 93.5091 44.2076 89.9411C44.3578 89.8344 44.5128 89.7101 44.6151 89.5642C45.0466 88.9478 44.7584 88.6044 44.313 88.4069C41.6685 89.5366 39.6204 91.3795 37.5898 93.2535C37.0441 93.7576 36.4799 94.2865 35.8414 94.6443C33.2253 96.1096 31.0205 98.1275 28.6433 99.9115C28.4782 100.036 28.4528 100.345 28.2474 100.852ZM31.5257 108.196C32.5982 107.488 33.6395 106.865 34.6109 106.149C39.8887 102.254 45.1505 98.3367 50.4132 94.4214C50.8613 94.0878 51.31 93.738 51.6879 93.3353C51.8276 93.1859 51.8526 92.8229 51.7753 92.6279C51.6356 92.2758 51.25 92.1845 50.8928 92.373C50.4027 92.6317 49.9399 92.9578 49.4904 93.2889C43.8322 97.4571 38.1759 101.628 32.5271 105.809C31.9392 106.244 31.4032 106.75 30.7602 107.292C31.0368 107.619 31.233 107.85 31.5257 108.196ZM30.2119 106.396C31.8634 105.209 33.498 103.985 35.183 102.837C36.8824 101.679 38.6593 100.662 40.2335 99.2931C41.8539 97.8843 43.6508 96.6699 45.3725 95.3732C47.0071 94.1424 48.7889 93.0925 50.2303 91.5951C49.7848 90.8996 49.2699 90.5578 48.4638 91.1C47.6876 91.6217 46.9499 92.2018 46.1804 92.7344C45.8628 92.9539 45.52 93.0594 45.2799 92.5073C46.1703 91.6986 47.097 90.857 48.2817 89.7812C47.4908 89.6254 46.9609 89.3317 46.5715 89.4829C45.7226 89.8125 44.893 90.297 44.1475 90.8437C39.2351 94.4487 34.3447 98.0837 29.4562 101.721C29.0165 102.048 28.6407 102.461 28.1469 102.915C28.3931 103.447 28.6195 103.936 28.8819 104.502C34.2866 101.549 38.7358 97.5375 43.5727 94.0919C43.9851 94.677 43.6164 95.0413 43.2574 95.2982C41.3536 96.6605 39.4081 97.9647 37.5121 99.3375C35.0103 101.149 32.5323 102.995 30.0633 104.852C29.4479 105.315 29.4845 105.422 30.2119 106.396ZM35.5147 108.589C35.9485 108.05 36.113 107.736 36.3694 107.545C37.4947 106.71 38.5998 105.826 39.7971 105.111C44.3837 102.37 48.5671 99.0583 52.8602 95.9011C53.1531 95.686 53.3933 95.3993 53.7095 95.0963C53.4088 94.6903 53.1414 94.3293 52.8794 93.9756C50.0452 94.9814 48.3307 97.3863 45.8635 98.7509C43.3584 100.136 41.1065 102.031 38.7822 103.754C36.5449 105.412 34.3569 107.137 32.0661 108.895C32.376 109.254 32.5336 109.653 32.8075 109.714C33.7628 109.927 34.444 110.352 34.8473 111.242C34.9898 111.556 35.5323 111.669 35.842 111.845C38.1128 110.696 39.783 109.443 41.5317 107.677C42.2507 106.952 42.982 106.216 43.7976 105.604C46.9385 103.248 50.1192 100.944 53.2768 98.6089C53.7996 98.2226 54.3546 97.8332 54.7495 97.3424C54.9207 97.1297 54.724 96.657 54.684 96.1784C53.2977 97.036 52.1515 97.8463 50.9233 98.4812C48.9974 99.4767 47.3184 100.783 45.6304 102.128C43.2938 103.99 40.8652 105.743 38.4313 107.479C37.7093 107.994 36.9914 108.694 35.5147 108.589ZM40.2 113.145C40.238 113.308 40.2164 113.538 40.3233 113.623C41.062 114.21 41.896 114.27 42.7806 113.64C43.8486 112.88 44.8958 112.091 45.9586 111.324C49.2979 108.913 52.6427 106.51 55.9796 104.096C56.9166 103.419 56.9099 103.396 56.2963 102.048C55.5225 102.621 54.7811 103.174 54.0361 103.721C50.8669 106.05 47.7266 108.42 44.5134 110.685C43.15 111.647 41.634 112.389 40.1872 113.23C39.9185 112.601 40.4468 112.223 40.8582 111.913C42.4267 110.729 44.0852 109.659 45.6161 108.432C48.8338 105.853 51.9768 103.182 55.5368 101.066C55.6962 100.971 55.9041 100.863 55.9693 100.721C56.113 100.406 56.3196 100.017 56.2476 99.7466C56.1273 99.2955 55.8082 98.9135 55.5551 98.4713C55.0984 98.7309 54.7505 98.8815 54.4563 99.103C48.8424 103.33 43.2328 107.563 37.6353 111.812C37.457 111.947 37.417 112.264 37.2909 112.543C38.1693 113.149 38.9754 113.764 40.2 113.145ZM26.0578 107.657C26.3388 106.627 25.887 105.823 25.5148 104.971C24.4598 102.555 23.9598 99.9772 24.2373 97.2239C24.692 92.7101 26.9116 89.073 31.0878 86.5565C33.9857 84.8101 37.1194 84.2359 40.3113 84.3643C45.3063 84.5653 49.4571 86.4458 53.0438 89.3925C56.0266 91.8435 58.1039 94.929 59.2142 98.6562C59.8722 100.865 60.08 103.162 59.6764 105.555C58.7726 110.913 54.8642 115.154 49.4034 116.717C46.1225 117.656 42.9357 117.601 39.8287 116.856C36.3824 116.029 33.3926 114.449 30.8428 112.198C30.1455 111.583 29.511 110.916 28.4445 110.879C27.6488 109.805 26.8534 108.731 26.0578 107.657Z" fill="#FF9D71"/>
<path d="M137.027 83.8186C136.848 83.6862 136.726 83.5964 136.603 83.5065C136.466 83.6964 136.254 83.8821 136.221 84.0775C136.204 84.1802 136.5 84.2989 136.655 84.4101C136.781 84.2102 136.907 84.01 137.027 83.8186ZM137.106 98.8053C137.217 98.5799 137.342 98.3464 137.445 98.1062C137.477 98.0315 137.45 97.9389 137.45 97.8544C137.298 97.8828 137.086 97.8629 137.008 97.9504C136.839 98.1399 136.728 98.3807 136.616 98.6091C136.584 98.6755 136.621 98.8405 136.648 98.8428C136.787 98.8521 136.933 98.8238 137.106 98.8053ZM132.794 81.1847C134.095 80.5062 134.095 80.5062 133.028 79.6168C132.942 80.1959 132.875 80.6415 132.794 81.1847ZM137.097 86.0319C135.921 86.2788 135.396 86.8928 135.498 88.0826C136.559 87.7433 137.29 87.2806 137.097 86.0319ZM69.4223 129.524C68.7749 130.063 68.2791 130.436 67.8356 130.86C67.5595 131.124 67.43 131.533 67.7974 131.707C68.0213 131.813 68.4579 131.74 68.7054 131.588C69.3462 131.192 69.7963 130.659 69.4223 129.524ZM67.0419 121.794C65.929 122.364 65.1374 122.658 65.0664 123.602C65.0293 124.093 64.9407 124.632 65.4714 124.914C65.7803 125.078 66.2472 124.633 66.4749 123.913C66.6543 123.346 66.7838 122.769 67.0419 121.794ZM72.8759 80.3822C77.1183 77.6602 80.6722 74.845 84.3374 71.8386C83.3995 71.3792 82.7109 71.7526 82.1298 72.1492C79.5822 73.8885 77.0397 75.6403 74.5574 77.472C73.7587 78.0613 73.1572 78.9129 72.8759 80.3822ZM122.72 109.198C124.085 109.218 125.299 108.786 126.326 108.066C129.007 106.187 131.627 104.216 134.23 102.23C135.045 101.608 135.673 100.797 135.541 99.7039C131.255 101.731 124.393 106.783 122.72 109.198ZM88.5313 71.7857C88.0652 71.2197 87.4643 71.2358 86.8334 71.5065C86.4991 71.6502 86.1997 71.9008 85.8989 72.1231C81.6052 75.2991 77.3126 78.476 73.0258 81.6613C72.6546 81.9372 72.2092 82.2252 72.0144 82.5961C71.7928 83.0179 71.8141 83.5387 71.7015 84.1739C72.1743 83.9802 72.4423 83.927 72.6414 83.78C77.7683 79.9977 82.8891 76.2073 88.0039 72.4088C88.209 72.2569 88.344 72.0112 88.5313 71.7857ZM116.378 110.17C117.988 110.647 118.928 110.145 119.847 109.488C121.365 108.403 122.905 107.346 124.405 106.236C128.9 102.91 133.375 99.557 137.869 96.23C138.97 95.4148 139.432 94.3855 139.165 93.2248C139.042 92.6894 139.1 92.3052 139.299 91.7714C139.805 90.4139 139.723 89.1314 138.619 87.8123C138.26 89.4864 137.943 90.8495 137.689 92.2173C137.612 92.6316 137.65 93.0773 137.74 93.4759C137.949 94.4006 137.299 94.9708 136.657 95.4584C135.927 96.0135 135.05 96.3742 134.31 96.9181C129.042 100.788 123.793 104.683 118.539 108.57C117.943 109.011 117.348 109.452 116.378 110.17ZM135.94 92.7303C133.619 93.9957 110.596 111.123 108.719 112.98C109.747 112.59 110.791 112.224 111.813 111.796C112.404 111.547 113.016 111.272 113.522 110.884C114.861 109.855 116.281 109.008 117.751 108.175C119.254 107.322 120.442 105.896 121.852 104.834C126.042 101.679 130.277 98.5819 134.485 95.4517C135.083 95.007 135.705 94.5574 136.191 94.011C136.616 93.5336 136.492 93.0266 135.94 92.7303ZM74.2261 135.313C74.2094 133.358 74.4386 133.076 76.7094 132.542C76.3216 133.034 76.0412 133.349 75.8122 133.692C75.5446 134.092 75.3955 134.498 76.0395 134.716C76.9006 134.237 77.7848 133.715 78.6981 133.257C78.9638 133.123 79.3128 133.175 79.9244 133.11C78.6479 134.465 77.3334 135.203 76.1901 136.145C75.7662 136.494 75.3274 136.873 75.0386 137.316C74.8854 137.552 74.9181 138.054 75.0878 138.25C75.2573 138.446 75.7009 138.482 76.0278 138.455C76.2668 138.435 76.5583 138.244 76.7462 138.055C78.3319 136.46 80.3906 135.512 82.1108 134.1C82.6855 133.628 83.3258 133.213 83.9816 132.868C84.2345 132.735 84.6145 132.867 85.1848 132.886C84.0653 134.364 82.7417 135.247 81.4659 136.123C80.1271 137.042 78.6637 137.775 77.0064 138.733C78.1978 139.2 79.0837 139.308 80.0873 138.756C80.9586 138.278 81.8646 137.867 82.7374 137.436C82.9785 137.898 83.1524 138.232 83.3095 138.533C84.9177 138.113 86.1909 137.456 87.4557 136.574C88.6278 135.757 89.7672 134.684 91.3372 134.575C91.7365 134.548 92.2372 134.182 92.1165 133.642C91.9732 133.002 92.4064 132.649 92.843 132.309C93.804 131.562 94.8 130.86 95.7592 130.11C96.5396 129.501 97.4022 128.935 97.6814 127.834C97.0657 127.905 96.5099 127.969 95.7158 128.06C96.2852 126.828 97.2641 126.392 98.0375 125.787C99.005 125.031 100.009 124.321 100.402 123.127C100.494 122.847 100.462 122.542 100.496 122.151C98.223 123.27 96.7203 125.218 94.528 126.023C94.039 125.326 94.5899 124.978 95.0134 124.658C97.0337 123.135 99.0389 121.587 101.114 120.142C102.927 118.879 104.123 117.198 105.601 114.954C104.388 115.852 103.647 116.401 102.907 116.95C99.1401 119.738 95.3791 122.535 91.599 125.306C91.1745 125.617 90.7876 126.224 90.0744 125.888C90.276 125.678 90.439 125.452 90.6517 125.293C94.0293 122.767 97.4167 120.254 100.794 117.728C103.195 115.932 105.691 114.239 107.956 112.289C112.292 108.558 117.193 105.575 121.549 101.879C122.188 101.337 122.882 100.822 123.617 100.428C127.688 98.2458 130.885 94.8379 134.795 92.4346C135.187 92.1934 135.583 91.8885 135.859 91.5331C136.425 90.8042 136.755 90.0204 136.233 89.1458C133.373 90.7576 131.414 93.3929 128.576 94.7871C128.097 94.3557 128.399 93.9195 128.707 93.6306C129.385 92.9948 130.14 92.4373 130.861 91.8448C132.149 90.7853 133.681 90.0108 134.915 88.5202C134.467 88.3309 134.105 88.0152 133.805 88.0906C133.401 88.1921 133.039 88.5883 132.667 88.8683C128.246 92.1894 123.835 95.5236 119.405 98.8322C115.426 101.803 111.414 104.73 107.439 107.705C101.286 112.31 95.1536 116.94 89.006 121.551C88.4362 121.979 87.8202 122.345 87.0349 122.866C87.09 122.382 87.0254 122.055 87.1584 121.934C87.7776 121.37 88.4354 120.842 89.1082 120.339C94.7383 116.137 100.377 111.946 106.009 107.746C108.562 105.841 111.11 103.93 113.653 102.01C114.995 100.997 116.44 100.073 117.619 98.9027C118.918 97.6136 120.738 97.207 121.977 95.8976C122.232 95.6277 122.537 95.4002 122.827 95.1627C124.346 93.9179 125.844 92.6463 127.394 91.4417C129.022 90.1767 130.705 88.9834 132.354 87.7448C132.726 87.4661 133.172 87.1794 133.37 86.8075C133.562 86.4488 133.594 85.9282 133.472 85.5701C133.399 85.3543 132.9 85.3127 132.495 85.1555C133.448 84.1729 134.934 83.3266 134.1 81.5809C133.517 81.9291 132.956 82.123 132.608 82.4971C131.534 83.653 130.574 84.5647 129.581 85.027C129.376 85.1225 129.056 84.9343 128.734 84.865C129.55 83.4696 131.778 83.0741 131.186 80.9659C130.623 81.3032 130.141 81.5398 129.717 81.8536C124.215 85.9211 118.71 89.985 113.228 94.08C106.846 98.8477 100.481 103.636 94.1249 108.439C93.0819 109.226 92.089 110.091 91.1381 110.986C89.6268 112.409 87.9636 113.614 86.1775 114.65C85.9257 114.796 85.5673 114.747 84.8378 114.843C85.517 114.057 85.8571 113.512 86.3335 113.141C87.8847 111.93 89.4787 110.773 91.0683 109.613C98.4086 104.254 105.892 99.0845 112.834 93.1999C113.191 92.8975 113.565 92.6127 113.941 92.3341C119.437 88.2654 124.94 84.2041 130.428 80.1229C130.928 79.7507 131.336 79.2542 131.801 78.801C131.33 77.9482 130.759 77.6034 129.686 77.8931C129.443 78.7188 129.206 79.5642 128.934 80.4023C128.893 80.5289 128.688 80.6219 128.484 80.7931C127.993 80.5579 127.474 80.309 126.969 80.0671C126.666 80.228 126.399 80.3301 126.177 80.4923C121.032 84.2532 115.849 87.9662 110.762 91.803C106.425 95.074 102.221 98.5193 97.9149 101.832C92.6435 105.889 87.3295 109.889 82.0288 113.908C81.5826 114.246 81.1154 114.567 80.6269 114.834C80.428 114.943 80.1462 114.888 79.6859 114.925C79.9 114.479 79.9656 114.099 80.1926 113.917C80.7723 113.454 81.4039 113.041 82.0509 112.676C84.9188 111.059 87.6186 109.229 89.8677 106.791C90.2431 106.384 90.6899 106.025 91.1406 105.695C94.6141 103.148 98.1236 100.649 101.567 98.0624C103.889 96.3188 106.113 94.4475 108.396 92.652C110.751 90.7995 113.11 88.9509 115.493 87.1341C119.293 84.2356 123.119 81.3708 126.919 78.4722C127.273 78.2024 127.571 77.8159 127.788 77.4351C127.88 77.2743 127.737 76.959 127.617 76.7699C127.554 76.6709 127.291 76.6285 127.146 76.675C126.89 76.7582 126.553 76.8754 126.427 77.0718C125.722 78.179 124.765 78.8474 123.504 79.2489C122.927 79.4326 122.437 79.9895 121.909 80.3798C116.482 84.3912 111.057 88.4061 105.626 92.4119C105.043 92.8412 104.424 93.2189 103.821 93.6206C104.016 93.0478 104.364 92.6662 104.768 92.3554C106.623 90.9267 108.517 89.546 110.355 88.0949C113.002 86.0054 115.597 83.8521 118.242 81.7612C119.859 80.4835 121.536 79.2801 123.171 78.0244C123.533 77.7462 123.881 77.4162 124.14 77.0522C124.268 76.8733 124.275 76.4911 124.158 76.331C124.041 76.1703 123.687 76.0707 123.465 76.1254C123.125 76.2095 122.778 76.4087 122.486 76.6277C117.911 80.0513 113.334 83.474 108.779 86.9244C106.988 88.2812 105.258 89.7185 103.476 91.0888C103.154 91.3371 102.68 91.6719 102.379 90.9645C102.756 90.6158 103.123 90.1974 103.563 89.8818C108.359 86.4423 112.666 82.3707 117.616 79.1287C118.701 78.4183 119.719 77.5866 120.319 76.1619C119.739 76.315 119.247 76.3225 118.911 76.557C117.76 77.3585 116.664 78.2402 115.547 79.0911C113.462 80.6802 111.391 82.2896 109.277 83.8398C108.885 84.1276 108.318 84.1759 107.443 84.4617C107.9 83.7531 108.059 83.2952 108.381 83.0469C109.641 82.0756 110.952 81.1696 112.245 80.2408C113.004 79.6956 113.802 79.1959 114.511 78.5947C115.041 78.146 115.857 77.774 115.695 76.9234C115.607 76.4635 114.727 76.787 113.594 77.6156C111.175 79.3843 108.737 81.1265 106.3 82.8688C103.939 84.556 101.561 86.2185 99.206 87.9141C97.3836 89.226 95.5917 90.581 93.7697 91.8941C93.4596 92.1174 93.0657 92.2248 92.7107 92.3856C94.6509 90.5546 96.7323 88.9749 98.8246 87.41C100.926 85.8381 103.059 84.3072 105.141 82.7099C107.203 81.1281 109.441 79.7632 111.292 77.9719C111.031 77.2405 110.469 77.2023 109.958 77.4739C109.223 77.8641 108.544 78.3803 107.868 78.8797C98.3738 85.9045 88.8861 92.9385 79.3888 99.9595C78.5638 100.569 77.6988 101.132 76.818 101.657C76.4508 101.875 75.9636 102.022 75.7552 101.324C76.0711 101.059 76.3885 100.716 76.7697 100.483C79.9723 98.5276 83.0362 96.3865 85.8263 93.8663C86.0336 93.6786 86.2681 93.5189 86.494 93.3516C89.8821 90.8414 93.2761 88.3384 96.6582 85.8201C99.7405 83.5255 102.815 81.2196 105.881 78.9032C106.294 78.5914 106.903 78.3244 106.659 77.6233C105.969 77.2208 105.319 77.5301 104.703 78.0019C101.803 80.223 98.9095 82.4532 96.0142 84.6807C95.4997 85.0766 95.0256 85.5528 94.4658 85.8568C92.5523 86.8957 90.9118 88.2753 89.3056 89.7181C88.5441 90.4027 87.7655 91.103 86.9022 91.6407C83.7914 93.5786 80.8475 95.7221 78.1096 98.1635C77.5043 98.7032 76.7181 99.0763 75.9746 99.4295C75.5919 99.6113 75.0699 99.6733 75.0195 99.0306C82.6219 93.4001 90.225 87.7698 97.8269 82.1378C99.3336 81.022 100.846 79.9136 102.332 78.7712C102.664 78.5157 102.896 78.1309 103.158 77.8235C102.752 77.3148 102.441 76.8602 101.786 77.2744C101.234 77.623 100.722 78.0381 100.199 78.4312C93.8277 83.2136 87.4617 88.0027 81.0822 92.7729C80.3363 93.3307 79.5224 93.8014 78.7231 94.2823C78.4013 94.4761 78.0409 94.56 77.6941 93.8962C80.0681 91.9319 82.9483 90.5863 85.4024 88.6491C87.8288 86.7338 90.3315 84.9134 92.7529 82.9919C95.2383 81.0194 97.6658 78.9746 100.366 76.7582C99.6713 76.6676 99.1935 76.4845 98.7515 76.5829C98.3414 76.674 97.9575 77.0491 97.5825 77.3273C91.5593 81.7914 85.5408 86.2624 79.5142 90.7219C79.2629 90.9075 78.9253 91.2457 78.5608 90.5681C79.7616 89.5074 81.0138 88.4446 82.3873 87.4993C84.3938 86.1185 86.3962 84.7294 88.3562 83.2836C89.3312 82.5642 90.1185 81.5458 91.1464 80.9504C93.4481 79.6177 95.2845 77.7345 97.3609 76.1414C97.6234 75.9397 97.7914 75.6152 97.9811 75.3757C97.413 74.5705 96.748 74.6425 96.0681 75.1708C94.1455 76.6649 92.2434 78.1848 90.3374 79.6999C89.6049 80.2819 88.9461 80.9961 88.1475 81.4472C84.5424 83.4832 81.3375 86.0853 78.0169 88.5257C77.7886 88.6939 77.5419 89.0983 77.0677 88.6522C77.9389 87.6872 78.8932 86.8635 79.9461 86.0958C84.49 82.7826 89.0077 79.4326 93.5245 76.082C94.0427 75.6973 94.5529 75.2636 94.9457 74.769C95.0802 74.5996 94.9123 74.1268 94.7517 73.8801C94.6489 73.7214 94.2355 73.5892 94.0846 73.6758C93.4441 74.044 92.8042 74.4477 92.2457 74.9293C88.259 78.3658 83.7021 81.0181 79.5458 84.221C79.0742 84.5847 78.4488 84.751 77.9201 84.9969C77.5599 84.3741 77.8191 83.9901 78.2227 83.724C79.0023 83.2104 79.8583 82.8095 80.6115 82.2629C84.1768 79.6758 87.7212 77.0597 91.2641 74.4416C91.7683 74.0686 92.2226 73.6283 92.8683 73.0749C92.3459 72.8106 92.0002 72.5994 91.6213 72.4546C91.2312 72.3054 90.8089 72.2211 90.3308 72.0895C87.8204 73.9487 85.3559 75.8146 82.8489 77.6205C79.8853 79.7551 76.8854 81.8393 73.8997 83.9427C73.0641 84.5314 72.2178 85.1069 71.6321 85.8632C71.594 86.8382 71.398 87.7186 71.9615 88.506C72.9234 87.8773 73.8327 87.2457 74.7822 86.6882C75.0209 86.5478 75.3901 86.6441 76.128 86.6147C74.4911 87.9691 73.2113 89.0281 71.9186 90.0975C71.8445 91.7313 72.1075 93.1988 72.4475 94.7585C74.2066 94.19 75.2051 92.6055 77.2739 92.0564C75.7857 93.4159 74.6237 94.4383 73.5129 95.5106C73.0707 95.938 72.9106 96.4469 73.3341 96.6406C74.1809 96.7923 74.6539 95.8456 75.4436 96.4926C75.0307 96.8232 74.6567 97.1757 74.2339 97.4506C73.2998 98.0583 72.9731 98.8453 73.376 99.7253C73.6034 100.222 73.7874 100.542 73.2582 101.072C72.625 101.705 72.5628 102.507 72.6779 103.26C72.9657 103.614 73.6394 102.873 73.7601 103.576C72.5265 104.638 71.1769 105.644 71.208 107.722C72.7167 106.837 73.8341 105.873 75.0222 105.024C76.3182 104.097 77.5906 103.137 78.8929 102.219C80.041 101.41 81.0855 100.423 82.6041 99.7071C82.3646 100.122 82.3119 100.316 82.1845 100.419C79.0566 102.957 75.9406 105.511 72.7702 107.996C72.082 108.535 71.1928 108.822 70.3041 109.272C70.0258 109.922 69.7058 110.67 69.3858 111.418C68.231 112.17 68.231 112.17 68.3116 113.295C68.6494 112.73 68.9071 112.301 69.1647 111.871C69.4554 111.998 69.7317 112.221 70.0398 112.232C70.5232 112.249 70.9257 112.258 70.9266 112.981C70.1469 113.631 69.2664 114.308 68.4554 115.057C67.7052 115.749 66.393 116.069 66.4685 117.635C67.1239 117.15 67.6254 116.783 68.122 116.409C68.6461 116.016 69.1591 115.607 69.6887 115.221C70.294 114.779 70.9163 114.361 71.5229 113.921C72.0538 113.536 72.5636 113.122 73.1015 112.748C73.5786 112.416 73.9806 111.877 74.6452 111.859C74.7348 112.652 74.1604 112.938 73.7657 113.258C71.5841 115.026 69.3719 116.758 67.1742 118.507C66.664 118.913 66.0952 119.284 65.6927 119.773C65.3866 120.145 65.0754 120.71 65.7529 121.089C67.4246 119.936 69.1186 118.802 70.777 117.616C72.4354 116.431 74.0585 115.195 76.0936 113.688C75.7853 114.46 75.7455 114.938 75.4841 115.151C74.1064 116.275 72.6746 117.334 71.2579 118.412C70.4375 119.035 69.5952 119.631 68.791 120.275C68.167 120.774 67.9401 121.769 68.3784 122.122C68.851 122.502 69.3997 122.245 69.8596 121.902C71.8821 120.394 73.8965 118.875 75.8986 117.339C76.4003 116.955 76.8703 116.605 77.8521 116.683C77.275 117.324 76.9743 117.768 76.5717 118.086C74.5139 119.711 72.4318 121.305 70.3541 122.904C69.7607 123.362 69.1114 123.757 68.5651 124.261C67.9784 124.802 67.7183 125.452 68.2538 126.202C68.7978 125.853 69.3538 125.535 69.8678 125.159C73.3468 122.616 76.8151 120.058 80.2916 117.511C80.9711 117.013 81.6535 116.513 82.3732 116.082C82.6056 115.943 82.961 116.02 83.4891 115.982C82.1743 117.803 80.9247 119.239 78.9414 119.889C78.5183 120.027 78.1183 120.314 77.7426 120.583C75.9137 121.889 74.0875 123.199 72.2789 124.533C70.771 125.645 69.2703 126.768 67.805 127.934C67.2756 128.356 66.9503 128.921 67.6177 129.617C73.5267 125.611 78.7519 120.608 85.4882 116.932C85.137 117.604 85.0604 117.962 84.8373 118.143C83.6726 119.084 82.494 120.013 81.2776 120.887C77.9422 123.284 74.584 125.649 71.2422 128.037C71.125 128.121 71.0868 128.317 70.9779 128.525C71.1478 128.755 71.3363 129.009 71.5049 129.237C73.0826 128.926 73.9329 127.074 76.0802 127.213C74.79 128.095 73.7507 128.672 72.8834 129.435C72.0268 130.19 70.917 130.986 71.55 132.484C72.1918 132.068 72.8026 131.709 73.374 131.295C75.1948 129.976 76.9932 128.626 78.819 127.314C79.2109 127.032 79.6591 126.94 79.9388 127.583C79.5737 127.925 79.2094 128.346 78.7701 128.663C77.1002 129.869 75.3948 131.025 73.7252 132.232C72.8191 132.886 71.919 133.563 71.0946 134.313C70.6954 134.676 70.444 135.228 71.1569 135.905C72.0253 134.901 73.1265 134.914 74.2309 135.312C73.6126 135.668 72.986 136.009 72.3913 136.401C72.3357 136.438 72.4392 136.82 72.5525 136.983C72.6067 137.061 72.9488 137.062 73.0046 136.991C73.4335 136.447 73.8239 135.876 74.2261 135.313ZM139.122 80.9444C140.001 82.6493 141.024 84.2885 141.729 86.0727C143.443 90.412 142.967 94.8983 140.257 99.1936C136.096 105.789 130.41 110.537 122.63 112.374C120.845 112.796 119.037 113.057 117.246 113.449C115.638 113.801 114.024 114.166 112.439 114.644C109.666 115.48 107.435 117.141 105.857 119.561C104.803 121.178 103.893 122.875 102.945 124.548C101.95 126.302 101.05 128.1 99.9969 129.825C98.1871 132.788 95.71 135.159 92.746 137.081C90.7776 138.358 88.7907 139.579 86.6214 140.454C79.5546 143.303 72.8889 142.844 67.3585 136.747C65.5481 134.751 64.2102 132.43 63.1859 129.93C61.7026 126.31 61.5545 122.458 62.7806 118.483C63.545 116.005 64.554 113.569 65.534 111.136C66.1763 109.543 66.9203 107.975 67.6938 106.424C69.0331 103.739 69.5685 100.98 69.4448 98.1769C69.3646 96.3694 69.1251 94.5855 68.9642 92.7898C68.7728 90.6523 68.4826 88.5273 68.4236 86.3722C68.2844 81.2743 70.3061 76.9117 74.605 73.3473C76.2789 71.9591 78.0522 70.7357 79.9865 69.8073C83.5011 68.1195 87.0834 67.7847 90.5501 68.8033C92.7893 69.461 94.9183 70.3905 97.0753 71.2404C98.8338 71.9334 100.533 72.7449 102.308 73.4044C105.102 74.4429 108.057 74.7595 111.208 74.2666C113.908 73.8441 116.62 73.4773 119.322 73.264C121.477 73.0942 123.651 73.0516 125.771 73.201C130.205 73.5134 133.767 75.4136 136.644 78.3983C137.456 79.2405 138.191 80.1534 138.961 81.0344C139.015 81.0043 139.069 80.9742 139.122 80.9444Z" fill="#FF9D71"/>
<path d="M44.989 49.4967C44.71 49.5208 44.4642 49.5419 44.2183 49.563C44.2756 49.7139 44.2893 49.9205 44.4038 49.9981C44.4977 50.0622 44.7365 50.0152 44.8626 49.9367C44.9447 49.8853 44.9397 49.6884 44.989 49.4967ZM39.5691 51.1242C39.5676 50.7242 39.6834 50.3155 39.5341 50.1855C39.375 50.047 38.9181 50.0755 38.6754 50.2044C38.2572 50.4269 38.1345 51.1685 38.4521 51.2396C38.7334 51.3024 39.0768 51.1839 39.5691 51.1242ZM30.7264 55.3173C30.4614 56.1706 30.2846 56.5718 30.2352 56.9741C30.2122 57.1597 30.4376 57.3476 30.5503 57.5345C30.8398 57.3447 31.389 57.0959 31.3729 56.976C31.3136 56.532 31.0677 56.1299 30.7264 55.3173ZM35.9312 50.4073C33.38 50.8299 32.6841 51.3952 31.9908 53.3257C32.7468 52.7659 33.4082 52.276 34.0693 51.7864C34.6899 51.3267 35.3106 50.867 35.9312 50.4073ZM49.3049 78.8269C49.9737 78.8249 50.4434 78.9601 50.7795 78.793C51.4376 78.4657 52.0377 77.9911 52.6338 77.5406C54.8758 75.8446 57.0998 74.1242 59.3468 72.4343C59.928 71.9976 60.5677 71.6393 61.1624 71.2569C61.8699 71.8109 61.938 72.4126 61.2494 72.8398C58.9464 74.2689 57.0988 76.3672 54.5455 77.4263C53.7281 77.7654 53.245 78.4299 53.0685 79.2672C53.2531 79.3167 53.4312 79.433 53.584 79.394C54.5753 79.1411 55.5975 78.223 56.5095 79.252C57.2182 79.0891 58.0387 79.1043 58.6136 78.7294C60.2475 77.6627 61.8127 76.4752 63.3353 75.2507C63.7907 74.8847 64.2301 74.2813 63.8285 73.4922C63.2918 73.852 62.7678 74.1825 62.2653 74.5434C60.6676 75.6911 59.0855 76.8611 57.4737 77.9878C57.3134 78.0998 56.9158 78.0557 56.7682 77.9321C56.6644 77.8452 56.7083 77.4062 56.8405 77.2862C57.7383 76.4715 58.7202 75.7416 59.5925 74.904C60.8793 73.6685 62.1528 72.4572 63.8599 71.7919C64.2412 71.6436 64.6802 71.3162 64.5579 70.7537C64.0362 70.7016 63.5167 70.6497 62.7115 70.5692C63.4101 69.7779 63.9109 69.2443 64.3687 68.6799C64.6817 68.2942 64.7923 67.8962 64.199 67.6165C63.3476 67.8036 62.5995 68.9594 61.443 68.2887C61.6408 67.969 61.7666 67.6181 62.0142 67.3956C62.4975 66.9604 63.0892 66.6354 63.5523 66.1845C63.7445 65.9976 63.7222 65.6049 63.7975 65.3058C63.5582 65.3112 63.2668 65.2285 63.0881 65.3383C62.3728 65.7786 61.7099 66.3114 60.9879 66.7378C60.7575 66.8738 60.4029 66.7856 59.7542 66.8168C60.954 65.6192 61.9001 64.73 62.7723 63.7792C63.1587 63.3576 62.9652 62.9797 62.303 62.7447C61.563 63.2928 60.709 63.8646 59.9245 64.5175C57.4678 66.5637 54.8249 68.3134 52.088 69.9608C49.1991 71.7002 46.5499 73.8012 44.0492 76.0716C43.9394 76.1713 43.9363 76.3832 43.8812 76.5495C44.1663 77.1546 44.7185 77.0829 45.1984 76.7644C47.4559 75.2651 49.8008 73.8607 51.8915 72.1553C53.7145 70.6684 55.9041 69.8081 57.6577 68.2499C58.0167 67.9305 58.4945 68.0038 58.5451 68.6194C56.4612 70.0675 54.3046 71.3881 52.3617 72.966C50.4299 74.5349 48.2566 75.8364 46.5411 77.6327C46.9941 78.3419 47.5965 78.417 48.2235 78.0552C48.8656 77.6844 49.432 77.1754 50.0392 76.7378C51.4832 75.6981 52.9266 74.6569 54.3823 73.6345C54.6849 73.4221 55.0411 73.2883 55.3333 73.8157C53.8353 75.8601 51.1065 76.6057 49.3049 78.8269ZM50.3694 61.3999C49.9066 60.7704 50.3169 60.3653 50.7809 60.0221C52.3626 58.852 53.9681 57.7142 55.5456 56.5386C55.9565 56.2325 56.5268 55.968 56.411 55.3243C56.27 55.2403 56.112 55.0618 56.0086 55.0966C54.5108 55.5974 37.5551 68.2642 35.6235 70.2969C35.8847 70.9958 36.371 71.1766 37.066 70.679C39.8081 68.7156 42.5372 66.7339 45.2754 64.7652C46.0208 64.2293 46.7819 63.716 47.5359 63.1922C46.6533 64.4562 45.3766 65.2331 44.2127 66.1392C43.0299 67.0597 41.8181 67.9433 40.6339 68.8621C39.4627 69.7705 38.1861 70.5604 37.0236 71.792C37.5424 72.286 37.9929 72.7156 38.5353 73.2327C39.4097 72.6296 40.1808 72.1237 40.9253 71.5804C43.9525 69.3707 46.9685 67.146 49.9963 64.9372C50.4769 64.5862 50.9472 64.1124 51.616 64.2296C51.7694 65.1482 51.0641 65.4083 50.5754 65.7532C47.3617 68.0191 44.1313 70.261 40.9142 72.5222C40.536 72.7879 40.0861 73.0726 39.8904 73.4402C39.7405 73.7217 39.9396 74.148 40.0027 74.6693C40.6898 74.294 41.1987 74.0753 41.6426 73.7628C43.2509 72.6301 44.8333 71.4604 46.4363 70.3199C46.7053 70.1283 47.0365 69.821 47.3693 70.3439C45.5442 72.1005 43.1546 73.251 41.3513 75.2117C42.0562 75.9268 42.7213 75.776 43.3512 75.2798C44.0814 74.7048 44.6915 73.9624 45.4566 73.4511C50.7565 69.9099 55.7292 65.9337 60.7589 62.0332C61.1016 61.7673 61.5596 61.5243 61.4672 60.9073C61.3126 60.6278 61.0029 60.515 60.6345 60.7114C59.8125 61.1493 58.9707 61.5722 58.2109 62.107C56.0666 63.616 53.9696 65.193 51.8317 66.712C51.116 67.2205 50.5003 67.9432 49.1401 68.2099C51.1843 66.373 53.2079 65.1657 54.9268 63.6201C56.6229 62.0954 58.8623 61.1348 60.1015 59.1269C59.9548 58.9819 59.8938 58.8647 59.8359 58.8725C57.718 59.1562 56.559 61.2752 54.1588 62.0918C54.7172 61.4956 54.9369 61.2196 55.1985 60.9894C56.3215 60.0017 57.462 59.0328 58.5807 58.0406C58.6995 57.9351 58.7176 57.7211 58.8385 57.4161C58.4656 57.1054 58.0521 56.7604 57.635 56.4127C54.9832 57.9364 52.9295 60.0633 50.3694 61.3999ZM34.3048 68.6895C34.5403 68.7696 34.7655 68.9217 34.8489 68.8639C40.1598 65.208 45.4797 61.5652 50.7456 57.8445C52.2372 56.7907 53.8928 55.8739 55.1163 54.223C54.7417 54.0336 54.4758 53.7767 54.1899 53.7874C53.8645 53.7991 53.4978 54.0109 53.1895 54.2032C51.6023 55.1926 50.0363 56.2175 48.446 57.2006C47.7666 57.6206 47.1096 58.1764 45.9155 58.1514C48.2183 56.3834 50.2648 54.8119 52.2802 53.2644C51.9189 52.4509 51.4278 52.3167 50.7052 52.6666C50.0423 52.9876 49.565 53.7396 48.6578 53.7742C49.0916 52.8224 50.3219 52.6623 50.4823 51.4879C49.9341 51.209 49.3553 50.9149 48.9551 50.7113C48.0658 51.6186 47.4007 52.4953 46.5515 53.1242C44.3726 54.7384 42.1166 56.2501 39.8786 57.7831C39.5772 57.9896 39.2261 58.4268 38.8635 58.0469C40.2313 56.7285 41.5659 55.4275 42.9182 54.144C43.7317 53.3715 44.5488 52.5977 45.7175 52.3954C45.9728 52.3516 46.2424 52.2005 46.4618 52.0393C46.8441 51.7589 47.1789 51.4332 46.9248 50.9395C46.6494 50.4055 46.1124 50.1282 45.6551 50.4035C45.0228 50.7841 44.4186 51.2279 43.8445 51.6945C42.6842 52.638 41.5663 53.6328 40.4008 54.5693C39.9763 54.9107 39.4726 55.2401 38.8604 54.7788C40.2172 53.3201 42.2066 52.5384 43.4447 50.8766C43.1517 50.5261 42.9462 50.2799 42.6826 49.9642C41.3047 51.1749 39.9208 52.2656 38.1477 52.6905C37.8697 52.354 37.6809 51.9758 37.3604 51.7877C37.1187 51.6461 36.6436 51.6247 36.386 51.7691C35.9276 52.0259 35.5966 52.6075 35.1373 52.7637C34.5117 52.9761 33.985 53.05 33.6216 53.763C33.4604 54.079 32.7282 54.1441 32.2865 54.3853C31.9036 54.5942 31.831 54.9665 32.0223 55.2834C32.1848 55.5526 32.4421 55.7623 32.7123 56.0582C33.2705 55.7379 33.7416 55.4614 34.2185 55.1967C34.5491 55.0126 34.8773 54.8833 35.0989 55.4775C34.4736 55.9406 33.8183 56.4461 33.1414 56.9205C32.6061 57.2958 32.0255 57.6071 31.4976 57.9923C30.8313 58.479 30.8346 58.7131 31.4815 59.8224C32.0984 59.4353 32.7309 59.072 33.3273 58.6559C34.325 57.9597 35.2759 57.1921 36.2982 56.5393C36.584 56.3568 37.0524 56.4726 37.5301 56.4463C37.0214 57.5336 36.1233 57.9307 35.3995 58.4938C34.0699 59.5284 32.6945 60.5039 31.3649 61.5386C30.7502 62.0172 30.664 62.5816 31.2475 63.2113C31.7676 62.9035 32.333 62.6133 32.8498 62.2526C33.616 61.7175 34.3405 61.122 35.0981 60.5739C35.4172 60.343 35.7485 60.2573 35.9361 60.8397C35.5083 61.2334 35.0287 61.6606 34.5652 62.1042C33.7565 62.8776 32.9472 63.6511 32.1598 64.4452C31.8568 64.751 31.8677 65.0712 32.2718 65.3557C33.9113 64.3735 35.6328 63.4713 37.0594 62.0913C37.3501 61.8104 37.8079 61.4682 38.2179 62.1098C36.7995 64.0086 34.2849 64.7853 32.8181 66.7531C33.0772 67.0442 33.2862 67.2794 33.579 67.608C34.2433 67.1623 34.8593 66.7686 35.4541 66.3448C36.0634 65.9101 36.648 65.4412 37.2502 64.9961C37.9275 64.4957 38.6186 64.0132 39.2916 63.507C39.8895 63.0575 40.4887 62.6056 41.0557 62.1191C41.9101 61.3869 41.9023 61.3783 42.9858 61.2499C42.0433 62.3784 40.8703 62.9661 39.881 63.7528C38.9293 64.5098 37.8981 65.1737 36.9783 65.9642C36.0196 66.788 34.7825 67.3989 34.3048 68.6895ZM63.7565 58.3708C65.5481 60.6889 66.9996 63.7658 67.6191 67.2664C67.9344 69.0472 67.9855 70.8555 67.5673 72.6961C66.6416 76.7677 64.1554 79.643 60.0917 81.2909C57.4362 82.3672 54.7577 82.5907 52.07 82.379C48.6626 82.1111 45.5234 81.1433 42.6048 79.6828C37.6505 77.2034 33.5582 73.7892 30.5765 69.2309C29.0137 66.8418 27.8897 64.2343 27.3621 61.3502C27.0525 59.6573 26.9879 57.9386 27.3176 56.1842C28.1532 51.7346 30.9087 48.752 35.2676 47.0393C37.5649 46.137 39.8972 45.9504 42.2333 46.065C45.7558 46.2382 48.9933 47.1778 52.0176 48.6378C56.6126 50.8563 60.4802 53.894 63.7565 58.3708Z" fill="#FF9D71"/>
<path d="M65.8453 28.0601C66.3856 27.7386 66.6103 27.6181 66.8178 27.4729C66.8736 27.4338 66.8778 27.3202 66.9054 27.2403C66.7772 27.2246 66.5933 27.1494 66.5311 27.2045C66.3525 27.3634 66.2235 27.5749 65.8453 28.0601ZM65.2291 29.7505C64.4293 30.2525 64.3296 30.7716 64.6735 31.3579C64.8493 31.658 65.1046 31.8786 65.5046 31.6656C65.9434 31.4319 66.2471 31.0631 65.9869 30.6136C65.7958 30.2833 65.4803 30.029 65.2291 29.7505ZM86.0315 53.8141C85.932 53.6899 85.8327 53.566 85.7331 53.4418C86.1469 52.9816 86.5128 52.4655 86.985 52.074C87.7751 51.4191 88.6617 50.8776 89.4534 50.2242C90.105 49.6863 90.3052 49.0496 89.6593 48.3744C89.347 48.5409 89.0036 48.6729 88.7181 48.8831C84.1972 52.2138 79.6821 55.5524 75.1741 58.9011C74.9683 59.054 74.8451 59.3184 74.6963 59.5136C74.9732 60.2772 75.5579 60.3838 76.1945 59.9681C77.3676 59.2014 78.4764 58.3334 79.6267 57.5291C80.0008 57.2674 80.4188 57.005 81.0119 57.5025C80.1765 58.9258 78.3212 59.3316 77.2591 60.8256C77.7392 60.9347 78.1205 61.1272 78.4903 61.0723C78.8026 61.0258 79.1095 60.7027 79.4059 60.4841C81.5917 58.8743 83.7672 57.25 85.9652 55.6567C86.285 55.4247 86.704 55.0254 87.2087 55.6406C85.3723 57.7643 82.6284 58.9007 80.5592 61.1559C82.5041 61.5886 83.6437 60.3969 84.9481 59.5941C87.8732 57.7933 88.9007 55.1254 89.5554 51.8981C88.2342 52.6162 87.1327 53.2153 86.0315 53.8141ZM64.1323 44.3408C64.8567 43.9531 65.6116 43.5492 66.3662 43.145C66.4446 43.2331 66.5229 43.3212 66.6011 43.409C65.9271 44.2397 65.2534 45.0701 64.6105 45.8623C64.7158 47.0513 64.8997 48.1168 65.6958 48.8489C66.7675 48.6745 67.4991 47.6734 68.9058 47.9043C67.8203 48.7083 67.0135 49.3058 66.1239 49.9647C66.6029 51.2528 67.0138 52.406 67.9005 53.2617C69.7666 53.0143 70.7356 50.9155 72.9517 50.9872C72.1549 51.7379 71.5713 52.3172 70.9542 52.8606C70.463 53.2927 69.9065 53.655 69.4258 54.0964C69.0454 54.4457 68.9788 54.871 69.277 55.2635C69.5706 55.6496 69.9928 55.7453 70.4396 55.4625C71.3866 54.8628 72.2895 54.1886 73.246 53.6057C73.4249 53.497 73.7687 53.6742 74.2882 53.7616C73.0957 54.9335 71.5782 55.328 70.9703 56.8184C71.8227 57.5849 72.7134 58.3854 73.6315 59.2107C74.0438 58.9746 74.3817 58.8251 74.6706 58.6098C79.4798 55.0237 84.283 51.4294 89.0871 47.8362C89.2369 47.7244 89.3846 47.6082 89.528 47.4876C90.3477 46.7991 90.2318 46.1416 89.7206 45.3315C88.1795 46.0336 87.0375 47.1537 85.7445 48.0245C84.3456 48.9662 82.9702 49.9444 81.5997 50.9279C80.3052 51.8565 79.0537 52.8473 77.7407 53.7469C76.4049 54.662 75.305 55.9421 73.6738 56.4311C75.1964 54.784 77.0554 53.5461 78.8398 52.2218C80.7211 50.8253 82.62 49.4518 84.4962 48.0483C86.2875 46.7081 88.0598 45.3424 89.898 43.9441C89.7168 43.3138 89.5674 42.793 89.3563 42.0602C88.4116 42.7599 87.6638 43.3137 86.916 43.8676C83.9027 46.0993 80.8913 48.3337 77.8744 50.5605C77.2721 51.0048 76.6649 51.4486 76.0291 51.8394C75.6029 52.1016 75.1871 52.1222 75.0384 51.3653C76.4494 50.1237 78.1553 49.1391 79.7119 47.966C81.2823 46.7822 82.9002 45.6604 84.4605 44.4643C86.0088 43.2771 87.9016 42.5885 89.3558 41.0712C89.1451 40.5531 88.9453 40.0624 88.666 39.3766C86.1413 41.2465 83.82 42.9833 81.4801 44.6937C79.2102 46.3528 76.9252 47.9908 74.6362 49.6227C74.2619 49.8896 73.8304 50.1268 73.3331 49.602C75.1983 48.1877 77.0232 46.7422 78.9118 45.3862C81.5758 43.4734 84.2892 41.6301 86.9753 39.7478C87.3563 39.4804 87.7179 39.178 88.0596 38.8624C88.5334 38.4247 88.4572 38.1159 87.6766 37.4573C87.0112 37.8845 86.3142 38.3427 85.607 38.7829C84.9547 39.189 84.4105 39.8943 83.5798 39.8475C83.3211 39.1779 83.7321 38.9014 84.0935 38.6184C85.0523 37.8683 86.0332 37.1454 86.9745 36.375C87.4818 35.9592 87.4204 35.7047 86.7296 34.9252C85.5093 35.3999 84.5659 36.3406 83.5127 37.0954C81.7606 38.3508 80.0513 39.6662 78.3058 40.9312C77.9073 41.2199 77.4597 41.3127 77.1618 40.6645C77.6015 40.2713 78.0444 39.8074 78.5534 39.4328C80.0625 38.3209 81.6001 37.2482 83.1215 36.1529C84.0335 35.4963 84.9696 34.8655 85.8318 34.1492C86.4952 33.598 86.3314 33.0708 85.6892 32.6767C84.7165 32.7742 84.0684 33.5192 83.3311 34.0593C79.7778 36.664 76.2455 39.2977 72.7022 41.9161C72.0244 42.4172 71.3374 42.9072 70.6393 43.3796C70.2937 43.6136 69.9718 43.6294 69.783 43.0181C74.6931 39.1257 80.0608 35.7178 84.9921 31.9175C84.9433 31.1217 84.6779 30.7422 83.985 30.9455C83.5484 31.0737 83.0956 31.2597 82.7204 31.5219C81.1091 32.6464 79.5276 33.8132 77.9264 34.9528C77.6137 35.1754 77.3115 35.6363 76.7618 35.1906C77.2463 34.3385 78.1034 33.9146 78.8137 33.3584C80.2143 32.2617 81.6487 31.207 83.026 30.0835C83.214 29.9303 83.3008 29.3803 83.1738 29.1987C83.0286 28.991 82.5162 28.8205 82.2956 28.9303C81.6357 29.2599 81.0242 29.7123 80.4227 30.1555C76.8014 32.8259 73.1912 35.5119 69.5691 38.1819C68.8285 38.7277 68.054 39.2271 66.9327 39.9964C67.2586 39.3548 67.3166 39.0623 67.4966 38.9141C69.2287 37.4865 70.9638 36.0615 72.7316 34.678C75.5341 32.4841 78.365 30.325 81.1752 28.1406C81.3062 28.0387 81.3557 27.8329 81.4809 27.6067C81.2637 27.5165 81.0178 27.3038 80.8406 27.3631C80.4165 27.5054 79.9994 27.7383 79.6235 27.9996C75.3156 30.995 71.0175 34.0056 66.709 37.0001C66.435 37.1904 66.0942 37.2823 65.7848 37.4201C67.2013 35.9698 68.759 34.7906 70.3162 33.6107C71.9595 32.3658 73.6263 31.1493 75.2397 29.8667C76.731 28.6803 78.4737 27.7885 79.7491 26.4067C79.3056 25.5394 78.7213 25.5948 78.11 26.0372C76.2116 27.4113 74.3335 28.8135 72.4473 30.2042C71.3158 31.0387 70.1883 31.8786 69.0478 32.7004C68.7487 32.9161 68.421 33.1327 68.082 33.2345C67.8877 33.2925 67.5137 33.18 67.4568 33.0364C67.39 32.8686 67.5077 32.4815 67.6707 32.3635C70.2457 30.4942 72.8439 28.6562 75.4288 26.8002C75.7922 26.5396 76.1148 26.2215 76.3976 25.9797C76.3536 25.326 76.0244 25.0791 75.5209 25.1565C74.7185 25.2795 74.7496 24.6957 74.5781 24.2475C74.5573 24.1928 74.3044 24.2411 74.0919 24.2419C74.1379 24.7143 74.1828 25.173 74.2266 25.6178C73.2719 25.9489 73.0306 25.3123 72.6852 24.8889C72.2902 24.4053 71.7554 23.964 71.1374 24.1703C69.8852 24.5877 68.4368 24.7462 67.6018 26.1079C67.9363 26.6972 68.2468 27.2439 68.6626 27.9757C67.7538 28.2058 66.8107 28.1762 66.6018 29.3514C66.9563 29.7278 67.3679 30.165 67.9074 30.7387C66.1287 31.4525 65.7059 33.4265 63.9939 34.1206C63.8358 34.1846 63.698 34.794 63.8032 35.0192C63.903 35.2322 64.3355 35.3909 64.6211 35.3601C64.9782 35.3209 65.3348 35.0636 65.8911 34.8094C65.019 36.1475 64.3317 37.2825 63.2166 37.9096C63.0204 39.6641 63.699 40.6384 65.25 40.985C65.0275 42.1397 63.0221 42.8248 64.1323 44.3408ZM66.2698 56.4069C62.5119 51.3527 60.6348 46.1022 60.1638 40.2502C59.8845 36.7823 60.2319 33.3126 61.5618 29.878C62.4213 27.6579 63.6585 25.6452 65.5535 23.9952C68.5359 21.3987 71.8452 20.4669 75.477 21.093C78.2167 21.5657 80.5584 22.7577 82.6376 24.3744C87.2105 27.9301 90.0846 32.6621 91.819 38.1486C93.1308 42.2977 93.6215 46.6168 92.883 51.1403C92.3934 54.1406 91.4068 57.0138 89.3704 59.5599C86.4925 63.1584 82.8523 64.7373 78.4873 64.273C76.0658 64.0152 73.9536 63.0881 72.0062 61.8545C69.5492 60.2976 67.5822 58.2646 66.2698 56.4069Z" fill="#FF9D71"/>
<path d="M105.742 34.7288C105.631 34.949 105.559 35.0915 105.486 35.234C105.68 35.2437 105.884 35.3012 106.061 35.2438C106.161 35.2116 106.215 34.99 106.289 34.8534C106.103 34.8111 105.917 34.7688 105.742 34.7288ZM107.728 36.0442C107.284 35.9531 106.97 35.7943 106.856 35.8845C106.596 36.0896 106.254 36.4526 106.277 36.6864C106.309 37.0139 106.718 37.2045 107.092 36.9216C107.325 36.745 107.456 36.433 107.728 36.0442ZM104.158 38.9679C104.247 38.967 104.338 38.9818 104.424 38.9631C104.931 38.8521 105.221 38.5209 105.286 38.0516C105.3 37.9464 105.096 37.7602 104.958 37.741C104.395 37.662 104.159 38.055 104.041 38.504C104.003 38.6477 104.115 38.8125 104.158 38.9679ZM109.559 33.9039C109.253 34.154 109.048 34.2503 108.98 34.3945C108.881 34.6037 108.775 34.9208 108.868 35.0566C108.963 35.1958 109.368 35.2902 109.505 35.1991C109.95 34.9034 110.337 34.5174 110.735 34.1549C110.779 34.1149 110.79 33.9718 110.753 33.9311C110.65 33.8169 110.508 33.6341 110.393 33.6536C110.053 33.7113 109.717 33.853 109.559 33.9039ZM102.13 39.1619C102.084 39.6271 101.946 39.9746 102.053 40.1849C102.26 40.5867 102.682 40.6613 103.15 40.3874C103.555 40.1499 103.769 39.4963 103.444 39.3249C103.143 39.1662 102.705 39.2211 102.13 39.1619ZM101.71 44.0595C102.014 43.8865 102.354 43.7363 102.645 43.5207C106.402 40.7386 110.153 37.9482 113.902 35.1559C114.126 34.9892 114.377 34.8163 114.517 34.5951C114.639 34.403 114.727 34.0725 114.638 33.9241C114.545 33.7694 114.229 33.7115 113.996 33.7024C113.845 33.6968 113.653 33.8322 113.505 33.9402C110.485 36.1405 107.467 38.3428 104.457 40.5559C104.084 40.8299 103.625 41.1176 103.439 41.4881C103.029 42.3045 102.426 42.681 101.57 42.8836C101.136 42.9861 101.18 43.4317 101.71 44.0595ZM101 47.5911C104.017 45.3915 107.075 43.1475 110.15 40.9268C111.584 39.8918 112.969 38.724 114.523 37.9416C116.093 37.1512 117.091 35.941 118.481 34.5409C117.711 34.469 117.232 34.318 116.78 34.4132C116.362 34.5008 115.952 34.8216 115.576 35.0915C114.29 36.0166 113.021 36.9651 111.743 37.9028C110.541 38.7851 109.337 39.6647 108.133 40.5461C106.855 41.4824 105.644 42.544 104.281 43.3212C102.896 44.1105 102.192 45.5904 100.728 46.2885C100.246 46.5188 100.305 47.2033 101 47.5911ZM120.426 36.1768C119.801 35.9808 119.377 35.6779 119.087 35.7923C118.503 36.0234 117.978 36.4614 117.454 36.8485C113.099 40.0656 108.75 43.2902 104.399 46.5134C103.649 47.0689 102.903 47.6294 102.153 48.1855C101.369 48.7672 101.16 49.4581 101.485 50.267C103.482 49.1709 118.362 38.1565 120.426 36.1768ZM102.148 53.1766C102.832 52.7045 103.599 52.2012 104.339 51.661C109.773 47.6974 114.927 43.3681 120.4 39.4535C120.966 39.0487 121.782 38.7222 121.702 37.8398C121.663 37.4081 120.878 37.6259 119.643 38.5161C114.107 42.5078 108.581 46.5138 103.056 50.5226C102.605 50.8499 102.152 51.1993 101.778 51.6047C101.229 52.2015 101.336 52.7197 102.148 53.1766ZM125.439 54.168C122.167 55.479 116.457 59.4772 112.779 62.9615C112.875 63.0905 112.936 63.2882 113.069 63.3348C114.119 63.7036 115.125 63.5831 116.091 62.7678C116.66 62.289 117.275 61.863 117.885 61.4352C118.453 61.0373 119.04 60.6687 119.845 60.1384C119.788 60.9085 119.504 61.2309 119.182 61.5468C118.808 61.9127 118.447 62.2894 117.737 63.01C120.563 62.0521 122.379 60.7115 123.579 58.3502C122.991 58.4399 122.615 58.4973 122.127 58.5714C124.985 56.0349 124.985 56.0349 125.439 54.168ZM124.845 43.8004C123.786 44.4651 122.862 45.0799 121.907 45.6364C120.371 46.5318 118.876 47.4468 117.776 48.9014C117.459 49.3221 116.962 49.7088 116.477 49.9236C114.144 50.9565 112.252 52.6455 110.257 54.1623C108.488 55.5067 106.878 57.0462 105.255 58.652C105.498 58.9801 105.684 59.2308 105.939 59.5755C106.527 59.2142 107.096 58.9205 107.603 58.5438C112.996 54.5442 118.38 50.5324 123.763 46.5203C124.211 46.1866 124.682 45.8657 125.067 45.4714C125.611 44.9137 125.581 44.3664 124.845 43.8004ZM122.327 41.8839C121.978 43.0174 121.177 43.3765 120.551 43.8432C115.602 47.5294 110.633 51.1894 105.685 54.8779C104.955 55.422 104.055 55.82 103.669 56.6995C103.792 57.3458 104.173 57.5995 104.806 57.3067C105.221 57.1148 105.592 56.8068 105.968 56.5305C111.614 52.3701 117.26 48.2098 122.898 44.0386C123.485 43.6041 124.022 43.1014 124.67 42.5567C124.074 41.3994 123.522 40.3279 122.912 39.1428C122.24 39.5312 121.659 39.8037 121.148 40.1736C119.254 41.5446 117.39 42.9563 115.503 44.3372C111.732 47.0979 107.948 49.8433 104.18 52.6101C103.582 53.0494 102.997 53.5307 102.506 54.0736C102.36 54.2341 102.479 54.7177 102.621 54.966C102.702 55.1072 103.136 55.1912 103.305 55.0962C103.949 54.7329 104.568 54.3097 105.166 53.868C109.906 50.3684 114.632 46.8512 119.378 43.3606C120.181 42.7696 120.908 41.9765 122.327 41.8839ZM109.94 62.1609C110.884 63.0061 111.497 62.6125 112.116 62.19C114.584 60.5058 117.09 58.874 119.511 57.1242C121.401 55.7575 123.182 54.2381 125.023 52.8016C125.734 52.2474 126.283 51.5835 126.12 50.7523C125.906 49.6633 126.086 48.5446 126.022 47.4502C126.004 47.1407 125.813 46.8587 125.687 46.5262C125.318 46.6567 125.035 46.6904 124.834 46.8373C119.025 51.0845 113.223 55.3408 107.429 59.6083C107.223 59.7601 107.11 60.0392 106.858 60.3949C107.364 60.7913 107.854 61.1749 108.428 61.6244C109.277 61.0361 110.049 60.5297 110.791 59.9819C114.553 57.2074 118.304 54.4196 122.064 51.6431C122.664 51.2 123.267 50.7487 123.913 50.3856C124.154 50.25 124.521 50.3561 125.372 50.3451C123.284 51.8365 121.629 52.9815 120.015 54.1822C118.291 55.4653 116.592 56.7835 114.907 58.1179C113.302 59.3893 111.73 60.7014 109.94 62.1609ZM101.361 59.2425C97.8019 54.0831 96.3603 48.3104 97.9892 41.7081C98.8443 38.2416 100.582 35.1695 103.592 32.786C106.902 30.1655 110.534 29.3076 114.403 29.9124C117.53 30.401 120.196 31.7592 122.368 33.7806C127.257 38.3322 129.618 44.0963 129.176 51.096C129.003 53.8383 128.212 56.485 126.769 58.9969C123.455 64.765 117.274 67.5731 111.144 66.0688C106.913 65.03 103.777 62.5894 101.361 59.2425Z" fill="#FF9D71"/>
<path d="M126.92 95.5944C126.904 95.9112 126.966 96.1808 126.859 96.3791C126.739 96.6023 126.491 96.8089 126.256 96.942C123.468 98.5191 121.102 100.664 118.577 102.596C117.612 103.334 116.578 103.982 115.585 104.685C113.678 106.037 111.737 107.347 109.881 108.766C105.94 111.78 102.065 114.88 98.1209 117.89C95.3666 119.992 92.5465 122.008 89.7424 124.044C89.3825 124.305 88.9496 124.48 88.5334 124.639C88.4315 124.678 88.2511 124.51 88.1298 124.411C88.0892 124.378 88.0927 124.254 88.1245 124.19C88.2033 124.033 88.2805 123.853 88.4112 123.742C88.8381 123.378 89.2805 123.031 89.7305 122.696C101.15 114.195 112.568 105.692 123.996 97.2023C124.865 96.5565 125.676 95.7404 126.92 95.5944Z" fill="#FF9D71"/>
<path d="M88.0437 118.905C88.2257 118.307 88.2252 117.925 88.4224 117.735C88.9575 117.22 89.5635 116.77 90.1637 116.325C102.28 107.346 114.399 98.3706 126.521 89.3994C127.341 88.792 128.195 88.2284 129.385 87.3988C128.879 88.6649 128.146 89.2306 127.419 89.7741C124.644 91.849 121.857 93.9052 119.073 95.9679C117.871 96.8585 116.683 97.7691 115.459 98.6297C114.545 99.2736 113.598 99.8741 112.642 100.454C111.358 101.233 110.072 101.991 109.182 103.249C108.973 103.545 108.696 103.825 108.396 104.037C105.57 106.035 103.048 108.446 100.028 110.188C99.3123 110.601 98.7025 111.207 98.0357 111.714C95.2013 113.866 92.3688 116.021 89.5214 118.156C89.179 118.413 88.7488 118.553 88.0437 118.905Z" fill="#FF9D71"/>
<path d="M105.921 85.4819C105.398 86.2417 105.229 86.6556 104.923 86.9033C103.398 88.1352 101.847 89.3356 100.288 90.5242C98.4326 91.9386 96.5614 93.3325 94.6936 94.7302C92.7495 96.185 90.8077 97.6438 88.8527 99.0846C84.4164 102.353 79.9743 105.613 75.5316 108.873C74.8544 109.37 74.1761 109.869 73.468 110.318C73.2945 110.428 73.0018 110.34 72.425 110.349C73.1592 109.662 73.6249 109.132 74.1797 108.723C77.8615 106.003 81.5722 103.323 85.2541 100.604C89.6122 97.3852 93.9838 94.182 98.2831 90.8868C100.352 89.301 102.278 87.5303 104.528 86.1848C104.825 86.0071 105.145 85.8714 105.921 85.4819Z" fill="#FF9D71"/>
<path d="M127.076 85.9449C127.482 86.4615 127.222 86.8333 126.838 87.1336C125.288 88.3456 123.742 89.5636 122.162 90.7354C111.85 98.3819 101.53 106.017 91.2125 113.656C90.8474 113.926 90.4823 114.196 90.1172 114.467C90.0428 114.39 89.9684 114.313 89.8939 114.237C90.1926 113.923 90.4528 113.558 90.7954 113.303C94.7764 110.335 98.781 107.398 102.753 104.419C103.797 103.636 104.739 102.718 105.752 101.891C107.491 100.471 109.213 99.0231 111.008 97.6757C115.805 94.0763 120.634 90.5201 125.46 86.9585C125.975 86.5784 126.546 86.2743 127.076 85.9449Z" fill="#FF9D71"/>
<path d="M97.1284 95.4909C97.0406 95.7192 97.0146 96.0079 96.8528 96.165C96.3874 96.6168 95.8872 97.0435 95.3649 97.4316C89.8171 101.551 84.2643 105.664 78.7055 109.769C78.221 110.127 77.7547 110.661 77.1472 110.485C76.7496 110.017 77.0862 109.728 77.3203 109.488C77.5754 109.228 77.8977 109.016 78.2151 108.827C82.7133 106.14 86.8194 102.891 91.0077 99.7647C92.4993 98.6509 93.8433 97.3421 95.2823 96.1553C95.762 95.7595 96.3275 95.4653 96.854 95.1244C96.9456 95.2468 97.037 95.3689 97.1284 95.4909Z" fill="#FF9D71"/>
<path d="M101.828 94.9371C98.0407 98.722 94.2284 101.593 89.9975 104.465C90.0233 103.867 89.989 103.635 90.0573 103.425C90.1068 103.273 90.2758 103.126 90.4216 103.018C93.7952 100.502 97.1711 97.9881 100.555 95.4857C100.769 95.3276 101.054 95.2656 101.828 94.9371Z" fill="#FF9D71"/>
<path d="M87.9705 105.492C82.9771 110.134 80.1457 112.119 78.4301 112.644C78.1424 112.309 78.3392 111.989 78.6396 111.766C79.9098 110.823 81.1458 109.809 82.4993 109.01C83.9485 108.155 85.4222 107.394 86.6145 106.155C86.937 105.819 87.5117 105.706 87.9705 105.492Z" fill="#FF9D71"/>
<path d="M77.5622 125.351C79.2675 123.706 82.8852 121.078 84.8729 120.041C85.2303 120.322 85.0619 120.61 84.7716 120.876C84.5002 121.125 84.2371 121.422 83.9182 121.576C81.8962 122.549 80.2229 123.995 78.5408 125.441C78.2084 125.726 77.7553 126.007 77.5622 125.351Z" fill="#FF9D71"/>
<path d="M85.5416 125.987C84.2561 127.782 82.5794 129.037 80.5835 129.93C80.4924 129.647 80.3645 129.435 80.4152 129.383C81.8685 127.883 83.5571 126.723 85.5416 125.987Z" fill="#FF9D71"/>
<path d="M89.8715 132.593C88.7411 133.865 87.4043 134.665 86.0743 135.466C85.9831 135.521 85.7214 135.42 85.6444 135.314C85.5688 135.21 85.5862 134.886 85.633 134.867C87.0337 134.298 87.9086 133.024 89.1644 132.277C89.2774 132.21 89.561 132.447 89.8715 132.593Z" fill="#FF9D71"/>
<path d="M85.4843 123.214C85.1261 124.418 84.321 124.912 83.6484 125.486C83.1844 125.881 82.7343 126.428 82.0252 126.218C81.6005 126.092 82.0003 125.349 82.933 124.614C83.6417 124.056 84.2894 123.369 85.4843 123.214Z" fill="#FF9D71"/>
<path d="M75.762 90.0966C74.928 91.3417 74.2719 92.1923 72.7187 92.1167C73.3589 90.8452 74.1486 90.1924 75.762 90.0966Z" fill="#FF9D71"/>
<path d="M90.4286 94.139C89.0104 95.5487 87.921 96.3447 86.1518 97.2179C87.4967 95.7712 88.5385 94.911 90.4286 94.139Z" fill="#FF9D71"/>
<path d="M93.8402 129.576C93.0195 130.66 92.1569 131.192 91.2922 131.649C90.824 131.296 90.8871 130.971 91.229 130.751C91.9631 130.279 92.7047 129.783 93.8402 129.576Z" fill="#FF9D71"/>
<path d="M100.24 92.9812C100.048 93.8083 99.6265 94.2034 98.7599 93.9908C98.9916 93.1913 99.3665 92.7229 100.24 92.9812Z" fill="#FF9D71"/>
<path d="M83.4331 130.541C82.817 130.997 82.2006 131.453 81.2266 132.175C81.8111 130.923 82.5611 130.581 83.4331 130.541Z" fill="#FF9D71"/>
<path d="M92.377 127.664C91.99 127.95 91.6028 128.237 91.2155 128.524C91.1515 128.448 91.0872 128.371 91.0235 128.294C91.3744 127.982 91.7255 127.671 92.0767 127.359C92.1768 127.46 92.2769 127.562 92.377 127.664Z" fill="#FF9D71"/>
<path d="M87.327 127.844C87.2505 127.979 87.1738 128.114 87.0972 128.249C86.965 128.16 86.7849 128.098 86.7203 127.971C86.6869 127.905 86.8565 127.726 86.9343 127.599C87.0648 127.68 87.1958 127.762 87.327 127.844Z" fill="#FF9D71"/>
<path d="M78.799 131.166C78.6482 131.133 78.4954 131.099 78.3424 131.065C78.3744 130.986 78.4268 130.837 78.4355 130.838C78.576 130.862 78.7162 130.896 78.842 130.953C78.8628 130.962 78.8154 131.092 78.799 131.166Z" fill="#FF9D71"/>
<path d="M86.8172 116.199C86.8327 116.277 86.8484 116.354 86.8642 116.432C86.742 116.398 86.6195 116.364 86.4973 116.331C86.5292 116.259 86.5612 116.188 86.5934 116.117C86.6679 116.144 86.7424 116.172 86.8172 116.199Z" fill="#FF9D71"/>
<path d="M42.2877 58.453C43.3613 57.1865 44.6952 56.2859 46.2052 55.6312C45.0504 56.7832 43.8378 57.8545 42.2877 58.453Z" fill="#FF9D71"/>
<path d="M57.9891 70.9522C57.9953 71.2876 58.0483 71.5384 57.9921 71.5688C57.7208 71.7158 57.4203 71.8035 57.1302 71.9121C57.1235 71.7606 57.0511 71.53 57.1222 71.4719C57.3583 71.2795 57.6463 71.149 57.9891 70.9522Z" fill="#FF9D71"/>
<path d="M68.1125 51.4848C67.6983 50.745 68.0536 50.4811 68.3105 50.2903C72.4857 47.1913 76.6698 44.1045 80.8697 41.039C81.0937 40.8753 81.4742 40.9263 81.8066 40.8735C81.7813 41.1378 81.8004 41.2262 81.7622 41.281C81.6604 41.427 81.559 41.6037 81.4139 41.6892C76.6761 44.4804 72.655 48.2698 68.1125 51.4848Z" fill="#FF9D71"/>
<path d="M67.9822 41.88C68.0182 41.7036 67.9931 41.4551 68.0968 41.3769C70.1085 39.8614 72.1306 38.3592 74.167 36.8775C74.3444 36.7484 74.6371 36.779 75.0577 36.7027C74.9174 37.0593 74.8932 37.37 74.7472 37.4538C72.9448 38.4893 71.3683 39.7972 69.8801 41.2331C69.3577 41.7374 68.7837 42.3276 67.9822 41.88Z" fill="#FF9D71"/>
<path d="M75.4018 42.0669C75.3935 42.1436 75.4141 42.2539 75.3743 42.2833C73.9639 43.3383 72.5476 44.3854 71.1427 45.426C70.6358 44.9829 70.9442 44.6339 71.2855 44.3191C71.5562 44.0691 71.8633 43.7014 72.1618 43.662C73.2515 43.5187 73.8976 42.8522 74.5268 42.0448C74.7179 41.7999 75.1682 41.6526 75.4018 42.0669Z" fill="#FF9D71"/>
<path d="M72.0945 27.4649C71.6764 27.6828 71.4451 27.8033 71.2142 27.9236C71.2114 26.8723 70.1092 26.5639 69.7838 25.7368C69.7414 25.6283 69.8476 25.39 69.9585 25.2917C70.0747 25.189 70.3194 25.1049 70.4386 25.1507C70.6667 25.2385 70.9084 25.3829 71.0332 25.5773C71.3803 26.119 71.67 26.6982 72.0945 27.4649Z" fill="#FF9D71"/>
<path d="M68.7238 44.7668C68.0872 45.2383 67.4509 45.7096 66.7363 46.2388C67.2622 45.0411 67.2664 45.0448 68.7238 44.7668Z" fill="#FF9D71"/>
<path d="M65.0809 38.6649C64.8832 38.841 64.7192 39.0285 64.5168 39.1416C64.456 39.1754 64.2878 39.0008 64.1687 38.9218C64.3184 38.7592 64.4474 38.5606 64.6279 38.4526C64.6994 38.4095 64.8851 38.5675 65.0809 38.6649Z" fill="#FF9D71"/>
<path d="M84.1316 55.1298C83.6873 55.493 83.3637 55.7574 82.6855 56.3118C83.0308 55.3617 83.3537 55.097 84.1316 55.1298Z" fill="#FF9D71"/>
</svg>
